<svg width="28" height="28" viewBox="0 0 28 28" fill="none" xmlns="http://www.w3.org/2000/svg">
<path fill-rule="evenodd" clip-rule="evenodd" d="M5.68449 0.607895H21.9115C24.7283 0.607895 27.032 2.91159 27.032 5.72549V21.9545C27.032 24.771 24.7283 27.0747 21.9115 27.0747H5.68449C2.86799 27.0747 0.563995 24.771 0.563995 21.9545V5.72549C0.563995 2.91159 2.86799 0.607895 5.68449 0.607895Z" fill="#6DB2E3"/>
<path d="M13.7981 5.11845C16.2067 5.11845 18.3874 6.09496 19.9661 7.67326C21.5447 9.25186 22.5209 11.4326 22.5209 13.8412C22.5209 16.2498 21.5447 18.4305 19.9661 20.0091C18.3874 21.5878 16.2067 22.564 13.7981 22.564C11.3896 22.564 9.20891 21.5878 7.63021 20.0091C6.05191 18.4305 5.07541 16.2498 5.07541 13.8412C5.07541 11.4326 6.05191 9.25186 7.63021 7.67326C9.20891 6.09496 11.3896 5.11845 13.7981 5.11845ZM19.1947 8.44456C17.8137 7.06356 15.9057 6.20917 13.7981 6.20917C11.6906 6.20917 9.78261 7.06356 8.40161 8.44456C7.02051 9.82566 6.16611 11.7337 6.16611 13.8412C6.16611 15.9488 7.02051 17.8568 8.40161 19.2378C9.78261 20.6189 11.6906 21.4732 13.7981 21.4732C15.9057 21.4732 17.8137 20.6189 19.1947 19.2378C20.5758 17.8568 21.4301 15.9488 21.4301 13.8412C21.4301 11.7337 20.5758 9.82566 19.1947 8.44456Z" fill="black"/>
<path d="M13.7981 5.11845C15.029 5.11845 16.1021 6.15846 16.8423 7.83966C17.5229 9.38516 17.9435 11.508 17.9435 13.8412C17.9435 16.1747 17.5229 18.2973 16.8423 19.843C16.1021 21.5243 15.029 22.564 13.7981 22.564C12.5673 22.564 11.4941 21.5243 10.754 19.843C10.0737 18.2973 9.6528 16.1747 9.6528 13.8412C9.6528 11.508 10.0737 9.38516 10.754 7.83966C11.4941 6.15846 12.5673 5.11845 13.7981 5.11845ZM15.8453 8.27846C15.2827 7.00006 14.5556 6.20917 13.7981 6.20917C13.0407 6.20917 12.3139 7.00006 11.7513 8.27846C11.1288 9.69236 10.7435 11.6586 10.7435 13.8412C10.7435 16.0239 11.1288 17.99 11.7513 19.4039C12.3139 20.6824 13.0407 21.4732 13.7981 21.4732C14.5556 21.4732 15.2827 20.6824 15.8453 19.4039C16.4678 17.99 16.8528 16.0239 16.8528 13.8412C16.8528 11.6586 16.4678 9.69236 15.8453 8.27846Z" fill="black"/>
<path d="M19.9661 8.35062C18.3874 9.92922 16.2067 10.9055 13.7981 10.9055C11.3896 10.9055 9.20889 9.92922 7.63019 8.35062L8.40159 7.57933C9.78259 8.96063 11.6906 9.81473 13.7981 9.81473C15.9057 9.81473 17.8137 8.96063 19.1947 7.57933L19.9661 8.35062Z" fill="black"/>
<path fill-rule="evenodd" clip-rule="evenodd" d="M13.2559 21.8704H14.3407V5.81236H13.2559V21.8704Z" fill="black"/>
<path fill-rule="evenodd" clip-rule="evenodd" d="M5.76929 13.299V14.3838H21.8273V13.299H5.76929Z" fill="black"/>
<path d="M19.9661 19.3317C18.3874 17.7533 16.2067 16.7768 13.7981 16.7768C11.3896 16.7768 9.20889 17.7533 7.63019 19.3317L8.40159 20.103C9.78259 18.7219 11.6906 17.8676 13.7981 17.8676C15.9057 17.8676 17.8137 18.7219 19.1947 20.103L19.9661 19.3317Z" fill="black"/>
</svg>
