<svg width="539" height="238" viewBox="0 0 539 238" fill="none" xmlns="http://www.w3.org/2000/svg">
<path d="M0.345703 179.484H11.5068V219.068C11.68 225.124 12.9995 229.494 15.4654 232.176C17.9313 234.858 22.7981 236.199 30.0658 236.199C31.5367 236.199 33.6564 236.069 36.4253 235.81C37.8095 235.637 38.8912 235.507 39.6699 235.42V224C38.2854 224.346 36.209 224.519 33.4402 224.519C30.4119 224.519 28.4654 223.848 27.5999 222.507C26.7348 221.166 26.3022 218.765 26.3022 215.304V179.484H39.6699V168.452H26.3022V148.336H11.5068V168.452H0.345703V179.484Z" fill="white"/>
<path d="M111.18 205.83C111.353 204.186 111.44 202.542 111.44 200.898C111.44 196.399 110.704 192.073 109.233 187.92C107.762 183.767 105.6 180.09 102.744 176.888C99.8888 173.687 96.4929 171.178 92.5561 169.361C88.6194 167.544 84.2716 166.635 79.5131 166.635C74.6678 166.635 70.2336 167.566 66.2104 169.426C62.1872 171.286 58.7479 173.86 55.8925 177.148C53.0372 180.436 50.8525 184.221 49.3386 188.504C47.8243 192.787 47.0674 197.307 47.0674 202.066C47.0674 212.622 49.9659 221.144 55.7627 227.633C61.5598 234.123 69.6063 237.367 79.9023 237.367C87.4297 237.367 93.9839 235.355 99.5645 231.332C105.145 227.309 108.714 221.707 110.272 214.525H96.2551C93.6594 221.966 88.2084 225.687 79.9023 225.687C74.1054 225.687 69.6496 223.783 66.5347 219.976C63.4199 216.169 61.8626 211.454 61.8626 205.83H111.18ZM61.8626 196.096C62.0355 190.992 63.7661 186.752 67.054 183.377C70.3416 180.003 74.4946 178.316 79.5131 178.316C84.3583 178.316 88.3166 180.046 91.3883 183.507C94.4596 186.968 96.1252 191.164 96.3849 196.096H61.8626Z" fill="white"/>
<path d="M182.561 190.905C181.868 183.031 178.71 177.018 173.086 172.865C167.462 168.712 160.541 166.635 152.321 166.635C141.679 166.635 133.503 170.01 127.792 176.759C122.082 183.507 119.227 192.159 119.227 202.715C119.227 212.925 122.103 221.253 127.857 227.698C133.611 234.144 141.593 237.367 151.802 237.367C160.368 237.367 167.29 235.053 172.567 230.424C177.845 225.795 181.176 219.111 182.561 210.372H167.766C167.073 215.131 165.321 218.873 162.509 221.599C159.697 224.324 156.128 225.687 151.802 225.687C148.687 225.687 146.005 225.038 143.755 223.74C141.506 222.442 139.667 220.69 138.24 218.484C136.812 216.277 135.752 213.833 135.06 211.151C134.368 208.469 134.022 205.657 134.022 202.715C134.022 197.87 134.584 193.825 135.709 190.581C136.834 187.336 138.305 184.827 140.122 183.053C141.938 181.279 143.907 180.046 146.027 179.354C148.147 178.662 150.288 178.316 152.451 178.316C156.604 178.316 160.043 179.419 162.769 181.625C165.494 183.832 167.16 186.925 167.766 190.905H182.561Z" fill="white"/>
<path d="M194.631 235.55H209.426V195.966C209.426 190.948 210.918 186.752 213.903 183.377C216.888 180.003 220.803 178.316 225.649 178.316C230.061 178.316 233.327 179.527 235.447 181.95C237.567 184.372 238.67 188.18 238.757 193.371V235.55H253.552V189.477C253.552 182.123 251.454 176.477 247.257 172.541C243.061 168.604 237.242 166.635 229.802 166.635C225.475 166.635 221.517 167.631 217.927 169.621C214.336 171.611 211.589 174.163 209.685 177.278H209.426V142.885H194.631V235.55Z" fill="white"/>
<path fill-rule="evenodd" clip-rule="evenodd" d="M6.03571 25.0038H19.1229C22.2527 25.0038 24.8132 27.5641 24.8132 30.6937V100.303C24.8132 103.432 22.2527 105.993 19.1229 105.993H6.03571C2.90621 105.993 0.345703 103.432 0.345703 100.303V30.6937C0.345703 27.5641 2.90621 25.0038 6.03571 25.0038Z" fill="#6DB2E3"/>
<path fill-rule="evenodd" clip-rule="evenodd" d="M118.226 6.03662V19.1239C118.226 22.2533 115.665 24.8138 112.536 24.8138H30.6928C27.5634 24.8138 25.0028 22.2533 25.0028 19.1239V6.03662C25.0028 2.90682 27.5634 0.346313 30.6928 0.346313H112.536C115.665 0.346313 118.226 2.90712 118.226 6.03662Z" fill="#6DB2E3"/>
<path fill-rule="evenodd" clip-rule="evenodd" d="M14.5971 34.7272L19.1229 25.0038C19.1229 25.0038 23.9135 22.9324 25.0028 19.124C26.0922 15.3153 30.6928 24.8139 30.6928 24.8139C30.6928 24.8139 25.4859 25.6844 24.8132 30.6938C24.1403 35.7032 14.5971 34.7272 14.5971 34.7272Z" fill="#6DB2E3"/>
<path fill-rule="evenodd" clip-rule="evenodd" d="M118.226 124.96V111.873C118.226 108.743 115.665 106.183 112.536 106.183H30.6928C27.5634 106.183 25.0028 108.743 25.0028 111.873V124.96C25.0028 128.09 27.5634 130.65 30.6928 130.65H112.536C115.665 130.65 118.226 128.09 118.226 124.96Z" fill="#6DB2E3"/>
<path fill-rule="evenodd" clip-rule="evenodd" d="M14.5971 96.2693L19.1229 105.993C19.1229 105.993 23.9135 108.064 25.0028 111.873C26.0922 115.681 30.6928 106.183 30.6928 106.183C30.6928 106.183 25.4859 105.312 24.8132 100.303C24.1403 95.2934 14.5971 96.2693 14.5971 96.2693Z" fill="#6DB2E3"/>
<path fill-rule="evenodd" clip-rule="evenodd" d="M118.226 72.042V58.9546C118.226 55.8249 115.665 53.2646 112.536 53.2646H42.737C39.6075 53.2646 37.047 55.8252 37.047 58.9546V72.042C37.047 75.1714 39.6075 77.7318 42.737 77.7318H112.536C115.665 77.7318 118.226 75.1714 118.226 72.042Z" fill="#6DB2E3"/>
<path fill-rule="evenodd" clip-rule="evenodd" d="M271.479 25.0038H284.567C287.696 25.0038 290.257 27.5643 290.257 30.6937V124.96C290.257 128.09 287.696 130.65 284.567 130.65H271.479C268.35 130.65 265.789 128.09 265.789 124.96V30.6937C265.789 27.5641 268.35 25.0038 271.479 25.0038Z" fill="#6DB2E3"/>
<path fill-rule="evenodd" clip-rule="evenodd" d="M371.436 6.03662V19.1239C371.436 22.2533 368.875 24.8138 365.746 24.8138H296.137C293.007 24.8138 290.446 22.2533 290.446 19.1239V6.03662C290.446 2.90682 293.007 0.346313 296.137 0.346313H365.746C368.875 0.346313 371.436 2.90682 371.436 6.03662Z" fill="#6DB2E3"/>
<path fill-rule="evenodd" clip-rule="evenodd" d="M280.041 34.7272L284.567 25.0038C284.567 25.0038 289.357 22.9324 290.446 19.124C291.536 15.3153 296.137 24.8139 296.137 24.8139C296.137 24.8139 290.93 25.6844 290.257 30.6938C289.584 35.7032 280.041 34.7272 280.041 34.7272Z" fill="#6DB2E3"/>
<path fill-rule="evenodd" clip-rule="evenodd" d="M371.436 92.9058V79.8185C371.436 76.6888 368.875 74.1284 365.746 74.1284H308.181C305.051 74.1284 302.491 76.6892 302.491 79.8185V92.9058C302.491 96.0352 305.051 98.5957 308.181 98.5957H365.746C368.875 98.5957 371.436 96.0352 371.436 92.9058Z" fill="#6DB2E3"/>
<path fill-rule="evenodd" clip-rule="evenodd" d="M390.403 25.0038H377.316C374.186 25.0038 371.626 27.5643 371.626 30.6937V68.2485C371.626 71.378 374.186 73.9386 377.316 73.9386H390.403C393.533 73.9386 396.093 71.378 396.093 68.2485V30.6937C396.093 27.5641 393.532 25.0038 390.403 25.0038Z" fill="#6DB2E3"/>
<path fill-rule="evenodd" clip-rule="evenodd" d="M381.842 34.7272L377.316 25.0038C377.316 25.0038 372.525 22.9324 371.436 19.124C370.346 15.3153 365.746 24.8139 365.746 24.8139C365.746 24.8139 370.953 25.6844 371.626 30.6938C372.298 35.7032 381.842 34.7272 381.842 34.7272Z" fill="#6DB2E3"/>
<path fill-rule="evenodd" clip-rule="evenodd" d="M381.842 64.2151L377.316 73.9386C377.316 73.9386 372.525 76.0102 371.436 79.8185C370.346 83.6269 365.746 74.1284 365.746 74.1284C365.746 74.1284 370.953 73.2576 371.626 68.2485C372.298 63.2391 381.842 64.2151 381.842 64.2151Z" fill="#6DB2E3"/>
<path fill-rule="evenodd" clip-rule="evenodd" d="M247.865 0.346313H234.778C231.649 0.346313 229.088 2.90682 229.088 6.03662V19.1239C229.088 22.2533 231.649 24.8138 234.778 24.8138H247.865C250.995 24.8138 253.556 22.2533 253.556 19.1239V6.03662C253.556 2.90682 250.995 0.346313 247.865 0.346313Z" fill="#6DB2E3"/>
<path fill-rule="evenodd" clip-rule="evenodd" d="M149.237 0.346313H136.15C133.02 0.346313 130.46 2.90682 130.46 6.03662V19.1239C130.46 22.2533 133.02 24.8138 136.15 24.8138H149.237C152.367 24.8138 154.927 22.2533 154.927 19.1239V6.03662C154.927 2.90682 152.366 0.346313 149.237 0.346313Z" fill="#6DB2E3"/>
<path fill-rule="evenodd" clip-rule="evenodd" d="M198.551 49.6609H185.464C182.334 49.6609 179.774 52.2215 179.774 55.351V75.6455C179.774 78.775 182.334 81.3356 185.464 81.3356H198.551C201.681 81.3356 204.241 78.775 204.241 75.6455V55.351C204.241 52.2215 201.681 49.6609 198.551 49.6609Z" fill="#6DB2E3"/>
<path fill-rule="evenodd" clip-rule="evenodd" d="M189.99 59.3845L185.464 49.6609C185.464 49.6609 180.674 47.5896 179.584 43.7811C178.495 39.9726 173.894 49.4711 173.894 49.4711C173.894 49.4711 179.101 50.3418 179.774 55.351C180.447 60.3604 189.99 59.3845 189.99 59.3845Z" fill="#6DB2E3"/>
<path fill-rule="evenodd" clip-rule="evenodd" d="M194.025 59.3845L198.551 49.6609C198.551 49.6609 203.341 47.5896 204.431 43.7811C205.52 39.9726 210.121 49.4711 210.121 49.4711C210.121 49.4711 204.914 50.3418 204.241 55.351C203.568 60.3604 194.025 59.3845 194.025 59.3845Z" fill="#6DB2E3"/>
<path fill-rule="evenodd" clip-rule="evenodd" d="M173.894 25.0038H160.807C157.677 25.0038 155.117 27.5643 155.117 30.6937V43.781C155.117 46.9106 157.677 49.4711 160.807 49.4711H173.894C177.024 49.4711 179.584 46.9106 179.584 43.781V30.6937C179.584 27.5641 177.024 25.0038 173.894 25.0038Z" fill="#6DB2E3"/>
<path fill-rule="evenodd" clip-rule="evenodd" d="M223.208 25.0038H210.121C206.992 25.0038 204.431 27.5643 204.431 30.6937V43.781C204.431 46.9106 206.992 49.4711 210.121 49.4711H223.208C226.338 49.4711 228.899 46.9106 228.899 43.781V30.6937C228.899 27.5641 226.338 25.0038 223.208 25.0038Z" fill="#6DB2E3"/>
<path fill-rule="evenodd" clip-rule="evenodd" d="M165.333 34.7272L160.807 25.0038C160.807 25.0038 156.016 22.9324 154.927 19.124C153.837 15.3153 149.237 24.8139 149.237 24.8139C149.237 24.8139 154.444 25.6844 155.117 30.6938C155.79 35.7032 165.333 34.7272 165.333 34.7272Z" fill="#6DB2E3"/>
<path fill-rule="evenodd" clip-rule="evenodd" d="M218.682 34.7272L223.208 25.0038C223.208 25.0038 227.999 22.9324 229.088 19.124C230.178 15.3153 234.778 24.8139 234.778 24.8139C234.778 24.8139 229.571 25.6844 228.899 30.6938C228.226 35.7032 218.682 34.7272 218.682 34.7272Z" fill="#6DB2E3"/>
<path fill-rule="evenodd" clip-rule="evenodd" d="M532.94 25.0038H519.853C516.723 25.0038 514.163 27.5643 514.163 30.6937V100.303C514.163 103.432 516.723 105.993 519.853 105.993H532.94C536.07 105.993 538.63 103.432 538.63 100.303V30.6937C538.63 27.5641 536.07 25.0038 532.94 25.0038Z" fill="#6DB2E3"/>
<path fill-rule="evenodd" clip-rule="evenodd" d="M432.984 6.03662V19.1239C432.984 22.2533 435.544 24.8138 438.674 24.8138H508.283C511.413 24.8138 513.973 22.2533 513.973 19.1239V6.03662C513.973 2.90682 511.413 0.346313 508.283 0.346313H438.674C435.544 0.346313 432.984 2.90682 432.984 6.03662Z" fill="#6DB2E3"/>
<path fill-rule="evenodd" clip-rule="evenodd" d="M524.379 34.7272L519.853 25.0038C519.853 25.0038 515.063 22.9324 513.973 19.124C512.884 15.3153 508.283 24.8139 508.283 24.8139C508.283 24.8139 513.49 25.6844 514.163 30.6938C514.836 35.7032 524.379 34.7272 524.379 34.7272Z" fill="#6DB2E3"/>
<path fill-rule="evenodd" clip-rule="evenodd" d="M422.578 34.7272L427.104 25.0038C427.104 25.0038 431.894 22.9324 432.984 19.124C434.073 15.3153 438.674 24.8139 438.674 24.8139C438.674 24.8139 433.467 25.6844 432.794 30.6938C432.121 35.7032 422.578 34.7272 422.578 34.7272Z" fill="#6DB2E3"/>
<path fill-rule="evenodd" clip-rule="evenodd" d="M427.104 25.0038H414.017C410.887 25.0038 408.327 27.5643 408.327 30.6937V100.303C408.327 103.432 410.887 105.993 414.017 105.993H427.104C430.234 105.993 432.794 103.432 432.794 100.303V30.6937C432.794 27.5641 430.234 25.0038 427.104 25.0038Z" fill="#6DB2E3"/>
<path fill-rule="evenodd" clip-rule="evenodd" d="M432.984 124.96V111.873C432.984 108.743 435.544 106.183 438.674 106.183H508.283C511.413 106.183 513.973 108.743 513.973 111.873V124.96C513.973 128.09 511.413 130.65 508.283 130.65H438.674C435.544 130.65 432.984 128.09 432.984 124.96Z" fill="#6DB2E3"/>
<path fill-rule="evenodd" clip-rule="evenodd" d="M524.379 96.2693L519.853 105.993C519.853 105.993 515.063 108.064 513.973 111.873C512.884 115.681 508.283 106.183 508.283 106.183C508.283 106.183 513.49 105.312 514.163 100.303C514.836 95.2934 524.379 96.2693 524.379 96.2693Z" fill="#6DB2E3"/>
<path fill-rule="evenodd" clip-rule="evenodd" d="M422.578 96.2693L427.104 105.993C427.104 105.993 431.894 108.064 432.984 111.873C434.073 115.681 438.674 106.183 438.674 106.183C438.674 106.183 433.467 105.312 432.794 100.303C432.121 95.2934 422.578 96.2693 422.578 96.2693Z" fill="#6DB2E3"/>
<path fill-rule="evenodd" clip-rule="evenodd" d="M132.134 23.1449L156.788 47.7994L177.913 26.6752L153.255 2.01794L132.134 23.1449Z" fill="#6DB2E3"/>
<path fill-rule="evenodd" clip-rule="evenodd" d="M252.215 22.8368L227.561 47.4913L206.436 26.3672L231.093 1.70984L252.215 22.8368Z" fill="#6DB2E3"/>
<path fill-rule="evenodd" clip-rule="evenodd" d="M247.865 130.65H234.778C231.649 130.65 229.088 128.09 229.088 124.96V111.873C229.088 108.743 231.649 106.183 234.778 106.183H247.865C250.995 106.183 253.556 108.743 253.556 111.873V124.96C253.556 128.09 250.995 130.65 247.865 130.65Z" fill="#6DB2E3"/>
<path fill-rule="evenodd" clip-rule="evenodd" d="M149.237 130.65H136.15C133.02 130.65 130.46 128.09 130.46 124.96V111.873C130.46 108.743 133.02 106.183 136.15 106.183H149.237C152.367 106.183 154.927 108.743 154.927 111.873V124.96C154.927 128.09 152.366 130.65 149.237 130.65Z" fill="#6DB2E3"/>
<path fill-rule="evenodd" clip-rule="evenodd" d="M189.99 71.6122L185.464 81.3356C185.464 81.3356 180.674 83.4072 179.584 87.2155C178.495 91.0242 173.894 81.5254 173.894 81.5254C173.894 81.5254 179.101 80.6549 179.774 75.6455C180.447 70.6362 189.99 71.6122 189.99 71.6122Z" fill="#6DB2E3"/>
<path fill-rule="evenodd" clip-rule="evenodd" d="M194.025 71.6122L198.551 81.3356C198.551 81.3356 203.341 83.4072 204.431 87.2155C205.52 91.0242 210.121 81.5254 210.121 81.5254C210.121 81.5254 204.914 80.6549 204.241 75.6455C203.568 70.6362 194.025 71.6122 194.025 71.6122Z" fill="#6DB2E3"/>
<path fill-rule="evenodd" clip-rule="evenodd" d="M173.894 105.993H160.807C157.677 105.993 155.117 103.432 155.117 100.303V87.2155C155.117 84.0861 157.677 81.5254 160.807 81.5254H173.894C177.024 81.5254 179.584 84.0861 179.584 87.2155V100.303C179.584 103.432 177.024 105.993 173.894 105.993Z" fill="#6DB2E3"/>
<path fill-rule="evenodd" clip-rule="evenodd" d="M223.208 105.993H210.121C206.992 105.993 204.431 103.432 204.431 100.303V87.2155C204.431 84.0861 206.992 81.5254 210.121 81.5254H223.208C226.338 81.5254 228.899 84.0861 228.899 87.2155V100.303C228.899 103.432 226.338 105.993 223.208 105.993Z" fill="#6DB2E3"/>
<path fill-rule="evenodd" clip-rule="evenodd" d="M165.333 96.2693L160.807 105.993C160.807 105.993 156.016 108.064 154.927 111.873C153.837 115.681 149.237 106.183 149.237 106.183C149.237 106.183 154.444 105.312 155.117 100.303C155.79 95.2934 165.333 96.2693 165.333 96.2693Z" fill="#6DB2E3"/>
<path fill-rule="evenodd" clip-rule="evenodd" d="M218.682 96.2693L223.208 105.993C223.208 105.993 227.999 108.064 229.088 111.873C230.178 115.681 234.778 106.183 234.778 106.183C234.778 106.183 229.571 105.312 228.899 100.303C228.226 95.2934 218.682 96.2693 218.682 96.2693Z" fill="#6DB2E3"/>
<path fill-rule="evenodd" clip-rule="evenodd" d="M132.134 107.852L156.788 83.197L177.913 104.321L153.255 128.979L132.134 107.852Z" fill="#6DB2E3"/>
<path fill-rule="evenodd" clip-rule="evenodd" d="M252.215 108.16L227.561 83.5052L206.436 104.63L231.093 129.287L252.215 108.16Z" fill="#6DB2E3"/>
<path fill-rule="evenodd" clip-rule="evenodd" d="M265.789 161.661V148.574C265.789 145.444 268.35 142.884 271.479 142.884H532.94C536.07 142.884 538.63 145.444 538.63 148.574V161.661C538.63 164.791 536.07 167.351 532.94 167.351H271.479C268.35 167.351 265.789 164.791 265.789 161.661Z" fill="white"/>
<path d="M410.309 228.47H384.155C384.717 226.783 385.817 225.236 387.453 223.83C389.089 222.424 391.492 220.698 394.662 218.653C396.299 217.579 397.551 216.735 398.421 216.122C402.154 213.514 405.081 210.804 407.203 207.992C409.325 205.179 410.386 201.856 410.386 198.021C410.386 196.18 410.079 194.301 409.465 192.383C408.852 190.466 407.88 188.676 406.551 187.015C405.221 185.353 403.432 184.023 401.182 183.026C398.932 182.029 396.248 181.531 393.129 181.531C387.3 181.531 382.761 183.448 379.515 187.283C376.268 191.118 374.644 196.103 374.644 202.239H383.388C383.541 198.046 384.308 194.761 385.689 192.383C387.069 190.006 389.37 188.817 392.592 188.817C394.33 188.817 395.8 189.098 397.002 189.661C398.203 190.223 399.137 190.977 399.801 191.923C400.466 192.869 400.939 193.892 401.22 194.991C401.502 196.091 401.642 197.203 401.642 198.328C401.591 199.964 401.233 201.485 400.568 202.891C399.904 204.297 399.022 205.563 397.922 206.688C396.823 207.813 395.66 208.835 394.433 209.756C393.205 210.676 391.518 211.852 389.37 213.284C387.683 214.409 386.379 215.303 385.459 215.968C381.726 218.474 378.837 221.414 376.792 224.789C374.746 228.163 373.698 231.998 373.647 236.293H410.309V228.47Z" fill="#6DB2E3"/>
<path d="M434.622 230.081C432.782 230.081 431.222 229.557 429.944 228.509C428.665 227.46 427.656 225.99 426.914 224.098C426.173 222.206 425.636 220.046 425.304 217.617C424.971 215.189 424.805 212.466 424.805 209.449C424.805 206.432 424.971 203.709 425.304 201.28C425.636 198.852 426.173 196.691 426.914 194.799C427.656 192.908 428.665 191.437 429.944 190.389C431.222 189.341 432.782 188.817 434.622 188.817C436.463 188.817 438.023 189.341 439.301 190.389C440.579 191.437 441.602 192.908 442.369 194.799C443.136 196.691 443.673 198.852 443.98 201.28C444.287 203.709 444.44 206.432 444.44 209.449C444.44 212.466 444.274 215.189 443.941 217.617C443.609 220.046 443.072 222.206 442.331 224.098C441.589 225.99 440.579 227.46 439.301 228.509C438.023 229.557 436.463 230.081 434.622 230.081ZM434.622 181.531C430.941 181.531 427.873 182.361 425.419 184.023C422.964 185.685 421.059 187.884 419.705 190.619C418.35 193.355 417.404 196.308 416.867 199.478C416.33 202.648 416.061 205.972 416.061 209.449C416.061 212.875 416.33 216.186 416.867 219.381C417.404 222.577 418.35 225.543 419.705 228.279C421.059 231.014 422.964 233.213 425.419 234.874C427.873 236.536 430.941 237.367 434.622 237.367C438.304 237.367 441.372 236.536 443.826 234.874C446.281 233.213 448.185 231.014 449.54 228.279C450.895 225.543 451.841 222.577 452.378 219.381C452.915 216.186 453.184 212.875 453.184 209.449C453.184 205.972 452.915 202.648 452.378 199.478C451.841 196.308 450.895 193.355 449.54 190.619C448.185 187.884 446.281 185.685 443.826 184.023C441.372 182.361 438.304 181.531 434.622 181.531Z" fill="#6DB2E3"/>
<path d="M495.598 228.47H469.443C470.006 226.783 471.105 225.236 472.742 223.83C474.378 222.424 476.781 220.698 479.951 218.653C481.588 217.579 482.84 216.735 483.71 216.122C487.442 213.514 490.37 210.804 492.491 207.992C494.613 205.179 495.674 201.856 495.674 198.021C495.674 196.18 495.368 194.301 494.754 192.383C494.141 190.466 493.169 188.676 491.84 187.015C490.51 185.353 488.721 184.023 486.471 183.026C484.221 182.029 481.536 181.531 478.417 181.531C472.588 181.531 468.05 183.448 464.803 187.283C461.556 191.118 459.933 196.103 459.933 202.239H468.677C468.83 198.046 469.597 194.761 470.978 192.383C472.358 190.006 474.659 188.817 477.881 188.817C479.619 188.817 481.089 189.098 482.291 189.661C483.492 190.223 484.425 190.977 485.09 191.923C485.755 192.869 486.228 193.892 486.509 194.991C486.79 196.091 486.931 197.203 486.931 198.328C486.88 199.964 486.522 201.485 485.857 202.891C485.192 204.297 484.31 205.563 483.211 206.688C482.112 207.813 480.948 208.835 479.721 209.756C478.494 210.676 476.807 211.852 474.659 213.284C472.972 214.409 471.668 215.303 470.747 215.968C467.015 218.474 464.126 221.414 462.08 224.789C460.035 228.163 458.987 231.998 458.936 236.293H495.598V228.47Z" fill="#6DB2E3"/>
<path d="M502.271 211.98H511.014C511.679 210.241 512.778 208.989 514.312 208.222C515.846 207.455 517.636 207.071 519.681 207.071C523.005 207.071 525.536 208.145 527.274 210.293C529.013 212.44 529.882 215.099 529.882 218.269C529.882 221.849 529.09 224.712 527.504 226.859C525.919 229.007 523.388 230.081 519.911 230.081C517.048 230.081 514.747 229.288 513.008 227.703C511.27 226.118 510.273 223.894 510.017 221.03H501.273C501.478 226.246 503.319 230.273 506.796 233.11C510.273 235.948 514.696 237.367 520.065 237.367C523.235 237.367 526.009 236.792 528.387 235.641C530.764 234.491 532.707 232.97 534.216 231.078C535.724 229.186 536.836 227.115 537.552 224.865C538.268 222.615 538.626 220.366 538.626 218.116C538.626 212.849 537.13 208.541 534.139 205.192C531.148 201.843 527.044 200.168 521.829 200.168C519.988 200.168 518.173 200.526 516.383 201.242C514.594 201.958 513.111 202.955 511.935 204.233L511.781 204.08L514.542 190.428H535.788V182.604H508.023L502.271 211.98Z" fill="#6DB2E3"/>
</svg>
