<svg width="395" height="763" viewBox="0 0 395 763" fill="none" xmlns="http://www.w3.org/2000/svg">
<path fill-rule="evenodd" clip-rule="evenodd" d="M147.181 381.321V182.551C151.228 152.418 182.551 147.181 182.551 147.181H394.792V0H182.551C163.724 0 148.322 15.4023 148.322 34.2281V112.953C141.769 135.862 112.953 148.323 112.953 148.323H34.2278C15.4029 148.323 0 163.725 0 182.551V381.321V580.092C0 598.917 15.4029 614.32 34.2278 614.32H112.953C112.953 614.32 141.769 626.78 148.322 649.69V728.414C148.322 747.24 163.724 762.643 182.551 762.643H394.792V615.461H182.551C182.551 615.461 151.228 610.224 147.181 580.092V381.321Z" fill="#808285"/>
</svg>
