<svg width="220" height="233" viewBox="0 0 220 233" fill="none" xmlns="http://www.w3.org/2000/svg">
<path fill-rule="evenodd" clip-rule="evenodd" d="M209.233 2.53743e-05H185.91C180.333 2.53743e-05 175.77 4.5632 175.77 10.1409V33.4642C175.77 39.0413 180.333 43.6045 185.91 43.6045H209.233C214.811 43.6045 219.374 39.0413 219.374 33.4642V10.1409C219.374 4.5632 214.811 2.53743e-05 209.233 2.53743e-05Z" fill="#6DB2E3"/>
<path fill-rule="evenodd" clip-rule="evenodd" d="M33.4637 2.53743e-05H10.1404C4.56316 2.53743e-05 0 4.5632 0 10.1409V33.4642C0 39.0413 4.56316 43.6045 10.1404 43.6045H33.4637C39.0413 43.6045 43.6044 39.0413 43.6044 33.4642V10.1409C43.6044 4.5632 39.0407 2.53743e-05 33.4637 2.53743e-05Z" fill="#6DB2E3"/>
<path fill-rule="evenodd" clip-rule="evenodd" d="M121.348 87.8853H98.025C92.448 87.8853 87.8846 92.4485 87.8846 98.0257V134.193C87.8846 139.771 92.448 144.334 98.025 144.334H121.348C126.926 144.334 131.489 139.771 131.489 134.193V98.0257C131.489 92.4485 126.925 87.8853 121.348 87.8853Z" fill="#6DB2E3"/>
<path fill-rule="evenodd" clip-rule="evenodd" d="M106.091 105.214L98.025 87.8853C98.025 87.8853 89.488 84.1939 87.5467 77.4066C85.6049 70.6193 77.4059 87.5471 77.4059 87.5471C77.4059 87.5471 86.6854 89.0987 87.8846 98.0258C89.084 106.953 106.091 105.214 106.091 105.214Z" fill="#6DB2E3"/>
<path fill-rule="evenodd" clip-rule="evenodd" d="M113.282 105.214L121.348 87.8853C121.348 87.8853 129.885 84.1939 131.827 77.4066C133.768 70.6193 141.968 87.5471 141.968 87.5471C141.968 87.5471 132.688 89.0987 131.489 98.0258C130.29 106.953 113.282 105.214 113.282 105.214Z" fill="#6DB2E3"/>
<path fill-rule="evenodd" clip-rule="evenodd" d="M77.4061 43.943H54.0827C48.5057 43.943 43.9425 48.5062 43.9425 54.0832V77.4065C43.9425 82.9839 48.5057 87.547 54.0827 87.547H77.4061C82.9838 87.547 87.5469 82.9839 87.5469 77.4065V54.0832C87.5469 48.5058 82.9833 43.943 77.4061 43.943Z" fill="#6DB2E3"/>
<path fill-rule="evenodd" clip-rule="evenodd" d="M165.291 43.943H141.968C136.39 43.943 131.827 48.5062 131.827 54.0832V77.4065C131.827 82.9839 136.39 87.547 141.968 87.547H165.291C170.868 87.547 175.432 82.9839 175.432 77.4065V54.0832C175.432 48.5058 170.868 43.943 165.291 43.943Z" fill="#6DB2E3"/>
<path fill-rule="evenodd" clip-rule="evenodd" d="M62.1488 61.2715L54.0827 43.9431C54.0827 43.9431 45.5459 40.2514 43.6044 33.4643C41.6626 26.6767 33.4637 43.6046 33.4637 43.6046C33.4637 43.6046 42.7431 45.1559 43.9425 54.0833C45.1417 63.0107 62.1488 61.2715 62.1488 61.2715Z" fill="#6DB2E3"/>
<path fill-rule="evenodd" clip-rule="evenodd" d="M157.225 61.2715L165.291 43.9431C165.291 43.9431 173.828 40.2514 175.77 33.4643C177.711 26.6767 185.91 43.6046 185.91 43.6046C185.91 43.6046 176.63 45.1559 175.432 54.0833C174.232 63.0107 157.225 61.2715 157.225 61.2715Z" fill="#6DB2E3"/>
<path fill-rule="evenodd" clip-rule="evenodd" d="M2.98291 40.6301L46.9202 84.5679L84.5676 46.9216L40.6252 2.97903L2.98291 40.6301Z" fill="#6DB2E3"/>
<path fill-rule="evenodd" clip-rule="evenodd" d="M216.984 40.0811L173.047 84.0188L135.4 46.3727L179.342 2.42996L216.984 40.0811Z" fill="#6DB2E3"/>
<path fill-rule="evenodd" clip-rule="evenodd" d="M209.233 232.219H185.91C180.333 232.219 175.77 227.656 175.77 222.079V198.756C175.77 193.178 180.333 188.615 185.91 188.615H209.233C214.811 188.615 219.374 193.178 219.374 198.756V222.079C219.374 227.656 214.811 232.219 209.233 232.219Z" fill="#6DB2E3"/>
<path fill-rule="evenodd" clip-rule="evenodd" d="M33.4637 232.219H10.1404C4.56316 232.219 0 227.656 0 222.079V198.756C0 193.178 4.56316 188.615 10.1404 188.615H33.4637C39.0413 188.615 43.6044 193.178 43.6044 198.756V222.079C43.6044 227.656 39.0407 232.219 33.4637 232.219Z" fill="#6DB2E3"/>
<path fill-rule="evenodd" clip-rule="evenodd" d="M106.091 127.006L98.025 144.334C98.025 144.334 89.488 148.026 87.5467 154.813C85.6049 161.6 77.4059 144.672 77.4059 144.672C77.4059 144.672 86.6854 143.121 87.8846 134.193C89.084 125.266 106.091 127.006 106.091 127.006Z" fill="#6DB2E3"/>
<path fill-rule="evenodd" clip-rule="evenodd" d="M113.282 127.006L121.348 144.334C121.348 144.334 129.885 148.026 131.827 154.813C133.768 161.6 141.968 144.672 141.968 144.672C141.968 144.672 132.688 143.121 131.489 134.193C130.29 125.266 113.282 127.006 113.282 127.006Z" fill="#6DB2E3"/>
<path fill-rule="evenodd" clip-rule="evenodd" d="M77.4061 188.277H54.0827C48.5057 188.277 43.9425 183.713 43.9425 178.136V154.813C43.9425 149.236 48.5057 144.672 54.0827 144.672H77.4061C82.9838 144.672 87.5469 149.236 87.5469 154.813V178.136C87.5469 183.714 82.9833 188.277 77.4061 188.277Z" fill="#6DB2E3"/>
<path fill-rule="evenodd" clip-rule="evenodd" d="M165.291 188.277H141.968C136.39 188.277 131.827 183.713 131.827 178.136V154.813C131.827 149.236 136.39 144.672 141.968 144.672H165.291C170.868 144.672 175.432 149.236 175.432 154.813V178.136C175.432 183.714 170.868 188.277 165.291 188.277Z" fill="#6DB2E3"/>
<path fill-rule="evenodd" clip-rule="evenodd" d="M62.1488 170.948L54.0827 188.277C54.0827 188.277 45.5459 191.968 43.6044 198.756C41.6626 205.543 33.4637 188.615 33.4637 188.615C33.4637 188.615 42.7431 187.063 43.9425 178.136C45.1417 169.209 62.1488 170.948 62.1488 170.948Z" fill="#6DB2E3"/>
<path fill-rule="evenodd" clip-rule="evenodd" d="M157.225 170.948L165.291 188.277C165.291 188.277 173.828 191.968 175.77 198.756C177.711 205.543 185.91 188.615 185.91 188.615C185.91 188.615 176.63 187.063 175.432 178.136C174.232 169.209 157.225 170.948 157.225 170.948Z" fill="#6DB2E3"/>
<path fill-rule="evenodd" clip-rule="evenodd" d="M2.98291 191.589L46.9202 147.651L84.5676 185.298L40.6252 229.24L2.98291 191.589Z" fill="#6DB2E3"/>
<path fill-rule="evenodd" clip-rule="evenodd" d="M216.984 192.138L173.047 148.2L135.4 185.847L179.342 229.789L216.984 192.138Z" fill="#6DB2E3"/>
</svg>
