<svg width="28" height="28" viewBox="0 0 28 28" fill="none" xmlns="http://www.w3.org/2000/svg">
<path fill-rule="evenodd" clip-rule="evenodd" d="M5.6843 0.595947H21.9118C24.728 0.595947 27.032 2.89995 27.032 5.71385V21.9426C27.032 24.7588 24.728 27.0627 21.9118 27.0627H5.6843C2.868 27.0627 0.563995 24.7588 0.563995 21.9426V5.71385C0.563995 2.89995 2.868 0.595947 5.6843 0.595947ZM22.8753 13.8291V19.3944C22.8753 21.3245 21.2949 22.9062 19.3626 22.9062H8.23229C6.30109 22.9062 4.72079 21.3245 4.72079 19.3944V13.8291H7.0619C7.0619 17.5479 10.0777 20.5648 13.7976 20.5648C17.5172 20.5648 20.5333 17.5479 20.5333 13.8291H22.8753ZM19.1361 5.19655H21.9792C22.4716 5.19655 22.8753 5.60025 22.8753 6.09285V8.93575C22.8753 9.42835 22.4716 9.83115 21.9792 9.83115H19.1361C18.6434 9.83115 18.2398 9.42835 18.2398 8.93575V6.09285C18.2398 5.60025 18.6434 5.19655 19.1361 5.19655ZM13.7976 9.94604C15.942 9.94604 17.6796 11.6836 17.6796 13.8291C17.6796 15.9727 15.942 17.7115 13.7976 17.7115C11.6529 17.7115 9.9153 15.9727 9.9153 13.8291C9.9153 11.6836 11.6529 9.94604 13.7976 9.94604Z" fill="#6DB2E3"/>
</svg>
