<svg width="28" height="27" viewBox="0 0 28 27" fill="none" xmlns="http://www.w3.org/2000/svg">
<path fill-rule="evenodd" clip-rule="evenodd" d="M5.68449 0.102051H21.9115C24.7283 0.102051 27.032 2.40574 27.032 5.21974V21.4483C27.032 24.2651 24.7283 26.5688 21.9115 26.5688H5.68449C2.86799 26.5688 0.563995 24.2651 0.563995 21.4483V5.21974C0.563995 2.40574 2.86799 0.102051 5.68449 0.102051ZM7.16049 4.54875C8.33749 4.54875 9.2913 5.50264 9.2913 6.67984C9.2913 7.85704 8.33749 8.81094 7.16049 8.81094C5.98329 8.81094 5.0295 7.85704 5.0295 6.67984C5.0295 5.50264 5.98329 4.54875 7.16049 4.54875ZM14.9431 11.9897C15.0496 11.4261 17.1513 9.47824 19.4275 10.0176C21.5835 10.5284 22.8231 12.5788 22.5209 14.7448V22.1221H19.0831V14.7448C19.0831 14.7448 18.9331 14.138 18.4555 13.7126C17.598 12.9481 15.9207 13.3432 15.3419 14.2832C15.1168 14.6508 14.9484 15.1784 14.9431 15.9338V15.9695V22.1221H11.5052V10.4309H14.9431V11.9897ZM5.5788 10.4309H9.01669V22.1221H5.5788V10.4309Z" fill="#6DB2E3"/>
</svg>
