<svg width="387" height="738" viewBox="0 0 387 738" fill="none" xmlns="http://www.w3.org/2000/svg">
<path d="M145.895 109.374L145.875 109.442C142.617 120.684 133.844 129.323 125.946 135.133C121.991 138.043 118.237 140.255 115.474 141.74C114.092 142.483 112.956 143.044 112.164 143.42C111.768 143.608 111.459 143.751 111.247 143.846C111.142 143.893 111.06 143.929 111.005 143.953C110.978 143.965 110.957 143.974 110.942 143.98C110.935 143.984 110.93 143.986 110.926 143.987C110.924 143.988 110.923 143.989 110.922 143.989H110.92C110.918 143.985 110.9 143.943 110.724 143.53L110.92 143.99L110.826 144.03H33.5518C15.3687 144.031 0.500101 158.717 0.5 176.652V561.348C0.5 579.283 15.3687 593.969 33.5518 593.97H110.826L110.92 594.011H110.922C110.923 594.011 110.924 594.012 110.926 594.013C110.93 594.014 110.935 594.016 110.942 594.02C110.957 594.026 110.977 594.036 111.005 594.048C111.06 594.072 111.141 594.108 111.247 594.155C111.459 594.25 111.768 594.392 112.164 594.58C112.956 594.956 114.092 595.517 115.474 596.26C118.237 597.745 121.991 599.957 125.946 602.867C133.844 608.677 142.617 617.316 145.875 628.558L145.895 628.626V704.878C145.895 722.533 160.302 737.04 178.098 737.489L178.947 737.5H386.5V596.074H178.906L178.866 596.067L178.922 595.729C178.871 596.036 178.866 596.065 178.865 596.067H178.863C178.862 596.067 178.86 596.067 178.858 596.066C178.854 596.066 178.848 596.065 178.84 596.063C178.824 596.061 178.801 596.056 178.771 596.051C178.71 596.04 178.621 596.024 178.506 596.001C178.275 595.956 177.937 595.886 177.508 595.787C176.649 595.589 175.421 595.274 173.937 594.804C170.969 593.864 166.969 592.305 162.842 589.824C154.582 584.859 145.79 576.187 143.78 561.415L143.775 561.382V176.619L143.78 176.585C145.79 161.813 154.582 153.141 162.842 148.176C166.969 145.695 170.969 144.136 173.937 143.196C175.421 142.726 176.649 142.411 177.508 142.213C177.937 142.114 178.275 142.043 178.506 141.998C178.621 141.975 178.71 141.959 178.771 141.948C178.801 141.943 178.824 141.939 178.84 141.937C178.848 141.935 178.854 141.933 178.858 141.933C178.86 141.932 178.862 141.932 178.863 141.932H178.865C178.866 141.932 178.867 141.941 178.947 142.425L178.866 141.932L178.906 141.925H386.5V0.5H178.947C160.763 0.500058 145.895 15.1868 145.895 33.1221V109.374Z" fill="black" stroke="black"/>
</svg>
