<svg width="414" height="1177" viewBox="0 0 414 1177" fill="none" xmlns="http://www.w3.org/2000/svg">
<path d="M257.962 1002.63L257.971 1002.58C261.43 984.786 270.761 971.059 279.214 961.789C283.441 957.153 287.453 953.626 290.41 951.258C291.888 950.074 293.104 949.178 293.951 948.578C294.374 948.278 294.706 948.052 294.933 947.9C295.046 947.825 295.132 947.767 295.191 947.729C295.221 947.709 295.243 947.694 295.259 947.685C295.266 947.68 295.272 947.676 295.276 947.674C295.278 947.673 295.28 947.672 295.281 947.671L295.282 947.67L295.283 947.669L295.406 947.591L378.107 947.591C387.761 947.591 396.598 941.778 403.043 932.293C409.486 922.811 413.5 909.705 413.5 895.266L413.5 281.734C413.5 267.295 409.486 254.189 403.043 244.707C396.598 235.222 387.762 229.409 378.107 229.409L295.406 229.409L295.283 229.331L295.282 229.33L295.281 229.329C295.28 229.328 295.278 229.327 295.276 229.326C295.272 229.324 295.266 229.32 295.259 229.315C295.243 229.306 295.221 229.291 295.191 229.271C295.132 229.233 295.046 229.175 294.933 229.1C294.706 228.948 294.374 228.722 293.951 228.422C293.104 227.822 291.889 226.926 290.41 225.742C287.454 223.374 283.441 219.847 279.214 215.211C270.762 205.941 261.43 192.214 257.971 174.418L257.962 174.37L257.962 52.8252C257.962 38.3857 253.948 25.2797 247.505 15.7978C241.06 6.31276 232.223 0.500143 222.568 0.499983L0.5 0.499964L0.49998 226.647L222.629 226.647L222.687 226.662L222.629 226.901C222.688 226.662 222.688 226.662 222.688 226.662L222.69 226.663C222.692 226.663 222.694 226.663 222.696 226.664C222.701 226.665 222.708 226.667 222.716 226.669C222.733 226.673 222.759 226.681 222.792 226.689C222.858 226.707 222.954 226.733 223.078 226.77C223.327 226.842 223.689 226.955 224.15 227.113C225.072 227.43 226.389 227.934 227.979 228.685C231.161 230.186 235.442 232.675 239.855 236.629C248.691 244.546 258.022 258.31 260.156 281.688L260.158 281.711L260.158 895.288L260.156 895.311C258.022 918.69 248.691 932.453 239.855 940.371C235.442 944.326 231.161 946.815 227.979 948.316C226.389 949.067 225.072 949.571 224.15 949.888C223.689 950.046 223.327 950.159 223.078 950.231C222.954 950.268 222.858 950.294 222.792 950.312C222.759 950.32 222.733 950.327 222.716 950.331C222.707 950.333 222.701 950.336 222.696 950.337C222.694 950.337 222.692 950.338 222.69 950.338L222.688 950.339C222.688 950.339 222.687 950.335 222.568 949.853L222.687 950.339L222.629 950.353L0.499917 950.353L0.499897 1176.5L222.568 1176.5C232.223 1176.5 241.06 1170.69 247.505 1161.2C253.948 1151.72 257.962 1138.61 257.962 1124.17L257.962 1002.63Z" fill="black" stroke="black"/>
</svg>
