<svg width="395" height="763" viewBox="0 0 395 763" fill="none" xmlns="http://www.w3.org/2000/svg">
<path d="M245.97 649.619L245.99 649.552C249.311 637.942 258.257 629.017 266.314 623.014C270.349 620.007 274.176 617.72 276.996 616.186C278.405 615.418 279.564 614.839 280.372 614.45C280.775 614.256 281.091 614.109 281.307 614.011C281.415 613.962 281.498 613.924 281.554 613.899C281.582 613.887 281.603 613.877 281.618 613.871C281.625 613.868 281.63 613.866 281.634 613.864C281.636 613.863 281.638 613.863 281.639 613.862L281.64 613.861C281.64 613.861 281.641 613.861 281.839 614.32L281.641 613.861L281.736 613.82H360.565C379.114 613.82 394.292 598.641 394.292 580.092L394.292 182.551C394.292 164.002 379.114 148.822 360.565 148.822H281.736L281.641 148.781L281.839 148.322C281.641 148.781 281.64 148.781 281.64 148.781L281.639 148.78C281.638 148.78 281.636 148.779 281.634 148.778C281.63 148.777 281.625 148.775 281.618 148.771C281.603 148.765 281.582 148.755 281.554 148.743C281.498 148.718 281.415 148.681 281.307 148.632C281.091 148.534 280.775 148.388 280.372 148.193C279.564 147.805 278.406 147.224 276.996 146.457C274.176 144.923 270.349 142.637 266.314 139.63C258.257 133.626 249.311 124.701 245.99 113.091L245.97 113.023V34.2285C245.97 15.6787 230.792 0.5 212.242 0.5L0.499512 0.5V146.682L212.284 146.682L212.325 146.688H212.327C212.328 146.689 212.329 146.689 212.332 146.689C212.336 146.69 212.343 146.691 212.351 146.692C212.367 146.695 212.391 146.7 212.421 146.705C212.483 146.716 212.574 146.733 212.692 146.757C212.927 146.804 213.271 146.876 213.709 146.979C214.585 147.183 215.838 147.509 217.352 147.994C220.379 148.965 224.459 150.576 228.669 153.14C237.095 158.27 246.058 167.228 248.107 182.484L248.112 182.518L248.112 580.125L248.107 580.158C246.058 595.415 237.095 604.374 228.669 609.504C224.459 612.067 220.379 613.679 217.352 614.649C215.838 615.135 214.585 615.46 213.709 615.665C213.272 615.767 212.927 615.839 212.692 615.886C212.574 615.909 212.483 615.926 212.421 615.938C212.391 615.943 212.367 615.947 212.351 615.95L212.327 615.955H212.325L212.284 615.962H0.499512L0.499512 762.143H212.242C230.792 762.143 245.97 746.964 245.97 728.415V649.619Z" fill="#808285" stroke="black"/>
</svg>
